<svg width="200" height="200" viewBox="0 0 200 200" fill="none" xmlns="http://www.w3.org/2000/svg">
<g clip-path="url(#clip0_1347_10019)">
<path d="M34.0972 89.2924L49.8966 71.9685L125.383 101.419L171.026 127.405L162.248 162.053H155.226L130.649 151.659L93.7839 136.067L72.718 122.208L51.6521 106.616L34.0972 89.2924Z" fill="#FFF3CE"/>
<path d="M5.64362 67.9606C6.49245 74.6239 10.0482 79.3674 13.2568 84.1754L78.1179 128.02C86.9199 133.969 96.2945 139.043 106.106 143.166L178.304 173.508C181.486 173.443 184.475 173.474 187.447 173.297C190.487 173.262 193.456 172.486 196.083 171.04C195.318 170.339 194.784 169.793 194.191 169.317C181.698 159.579 167.494 152.179 152.313 147.501C142.323 144.487 132.504 140.927 122.903 136.839C107.932 130.281 93.4839 122.605 79.6884 113.88C71.4728 108.812 63.5741 103.261 56.0372 97.259C44.2128 87.1035 30.988 78.634 16.7688 72.1105C13.3055 70.572 9.65769 69.4441 5.64362 67.9606Z" fill="#1D1D1D"/>
<path d="M134.188 69.1872C135.454 68.86 136.759 68.6818 138.075 68.6565C151.048 70.0341 163.633 74.0564 175.01 80.4619C176.225 81.1526 177.365 81.9693 178.559 82.6981C179.948 83.409 181.057 84.555 181.705 85.948C182.352 87.3411 182.5 88.8985 182.123 90.3646C180.855 96.4094 179.545 102.445 178.195 108.472C176.088 117.805 173.911 127.121 171.78 136.448C170.961 140.036 170.261 140.574 166.482 140.084C156.726 138.611 147.172 135.955 138.045 132.179C116.389 123.471 95.6355 112.691 76.0932 99.9994C65.7464 93.7199 56.1205 86.3558 47.3912 78.0412C44.5908 75.2784 44.6032 74.4355 47.2534 71.6153C57.2888 60.9355 67.2926 50.227 77.3623 39.5781C83.0122 33.6031 87.2391 33.3892 93.4643 39.0061C105.779 49.9144 117.1 61.8475 127.296 74.6655C129.353 76.9877 131.665 79.0841 134.187 80.9158C134.549 81.1185 134.952 81.2377 135.366 81.2641C135.779 81.2906 136.191 81.2235 136.569 81.0681C136.945 80.8977 137.06 79.6772 136.896 79.0167C136.117 75.8989 135.202 72.8114 134.188 69.1872Z" fill="#1D1D1D"/>
</g>
<defs>
<clipPath id="clip0_1347_10019">
<rect width="200" height="200" fill="white"/>
</clipPath>
</defs>
</svg>
